<svg xmlns="http://www.w3.org/2000/svg" viewBox="0 0 5000000 5000000"><g><path fill="#ccc" fill-rule="nonzero" d="M2501654 879358l9803 -11457c45474,-51970 94255,-99215 147642,-141855 94846,-75947 197605,-132760 312648,-170320 113862,-37206 238590,-55868 378319,-55868 154729,0 303199,31182 439148,87405l472 236c141028,58230 267765,143626 373359,249338l13346 14647c101578,105003 183195,229022 239063,366035 54451,133705 84570,279812 84570,432297 0,251228 -60829,499622 -167132,745535 -103467,239417 -250047,475409 -425092,708802 -166777,222527 -359184,442691 -564112,661674 -216621,231149 -424147,438794 -631673,646320 -58585,58584 -135359,87877 -212015,87877 -76656,0 -153548,-29293 -212133,-87877l-472 -473c-429581,-429580 -859279,-859397 -1195313,-1307521 -175045,-233393 -321625,-469385 -425092,-708802 -106303,-245913 -167132,-494307 -167132,-745535 0,-155084 31182,-303671 87523,-439620 58348,-140910 143863,-267647 249574,-373359 207999,-208116 495607,-336979 812979,-336979 228668,0 412808,45947 570963,137603 105712,61301 197368,141855 280757,241897zm219810 172211c-35198,40395 -68743,84923 -100870,133232 -10630,17953 -25394,33899 -44174,46065 -64609,41930 -151068,23504 -192998,-41104 -90476,-139729 -186739,-243551 -302490,-310522 -114098,-66262 -253000,-99334 -430998,-99334 -240126,0 -457810,97444 -615138,254772 -80553,80554 -145280,176463 -189336,282647 -42167,101932 -65554,214259 -65554,332491 0,212959 51971,424619 142918,635098 93901,217094 229378,434542 392493,651990 319853,426627 744945,851719 1170037,1276811l472 473c3780,3779 8977,5787 14174,5787 5079,0 10276,-2008 14056,-5787 219928,-219928 439974,-439975 626122,-638760 197722,-211070 383279,-423557 544505,-638524 163115,-217448 298474,-434896 392375,-651990 90947,-210479 142917,-422139 142917,-635098 0,-115988 -22677,-226543 -63663,-327294 -42167,-103468 -103704,-197132 -179888,-276150l-11338 -11694c-80436,-80435 -176345,-145280 -282529,-189218 -101696,-42285 -214023,-65554 -332491,-65554 -110791,0 -207054,13820 -291859,41577 -83625,27402 -157683,68151 -225244,122129 -38623,30946 -75711,66971 -111499,107957z"/></g></svg>