<svg xmlns="http://www.w3.org/2000/svg" viewBox="0 0 5000000 5000000"><g><path fill="#ccc" fill-rule="nonzero" d="M2914108 3291245c64017,46419 134886,81499 216621,104886 85160,24449 183549,36733 299300,36733 224535,0 426392,-70632 571199,-184730 135123,-106539 218866,-251229 218866,-408438 0,-368161 -266347,-760772 -606398,-1117831 -353515,-371350 -788883,-703959 -1099168,-938061l-2480 -1890c-3780,-2008 -8150,-2952 -12520,-2952 -5079,118 -10276,1889 -14528,5197l-3898 2952c-309695,233630 -743409,565530 -1095743,935817 -339460,356823 -605453,749079 -605453,1116768 0,157209 83743,301899 218984,408438 144689,114098 346546,184730 571081,184730 115988,0 214495,-12284 299891,-36852 82562,-23740 153548,-58820 216975,-105003 62128,-45237 149296,-31536 194534,30592 35434,48545 34726,112326 3189,159572l-492535 738566 1416304 0 -492180 -737858c-42876,-63899 -25631,-150595 38268,-193470 49963,-33427 113626,-30356 159691,2834zm515921 421549c-84687,0 -162879,-5669 -235873,-17008l278276 417178c38269,57049 49844,124020 37560,185675 -12283,62246 -48426,120004 -105593,158273 -21615,14410 -43821,25040 -65908,31773l-236 -591c-18426,5670 -36734,9095 -54333,10512l-17481 1063 -1532528 0c-68624,0 -130870,-27875 -175872,-72876 -45001,-45001 -72876,-107248 -72876,-175872 0,-24095 3898,-48308 11103,-71931l3071 -9804c8976,-25748 21851,-49371 37796,-69923l269182 -403595c-72995,11457 -151422,17126 -236346,17126 -288789,0 -552065,-93664 -743882,-244850 -201384,-158745 -326113,-380800 -326113,-628248 0,-452495 300010,-906525 683053,-1309175 368752,-387532 812388,-727228 1129288,-966291 52915,-41576 118704,-63545 185084,-64017 60711,-709 122248,16772 175045,53269l10513 7205c317372,239417 762898,579939 1133067,968653 383516,402886 683998,857389 683998,1310356 0,247448 -124729,469503 -325995,628248 -191935,151186 -455211,244850 -744000,244850z"/></g></svg>