<?xml version="1.0" standalone="no"?>
<!DOCTYPE svg PUBLIC "-//W3C//DTD SVG 20010904//EN"
 "http://www.w3.org/TR/2001/REC-SVG-20010904/DTD/svg10.dtd">
<svg version="1.0" xmlns="http://www.w3.org/2000/svg"
 width="974.000000pt" height="974.000000pt" viewBox="0 0 974.000000 974.000000"
 preserveAspectRatio="xMidYMid meet">
<metadata>
Created by potrace 1.11, written by Peter Selinger 2001-2013
</metadata>
<g transform="translate(0.000000,974.000000) scale(0.100000,-0.100000)"
fill="#000000" stroke="none">
<path d="M4255 9293 c-16 -3 -57 -11 -90 -19 -33 -8 -70 -17 -83 -20 -21 -4
-102 -36 -327 -129 -49 -20 -109 -46 -132 -56 -23 -10 -48 -19 -56 -19 -8 0
-20 -7 -27 -15 -7 -8 -21 -15 -31 -15 -10 0 -21 -5 -24 -10 -4 -6 -11 -8 -16
-4 -6 3 -19 -2 -30 -12 -10 -9 -19 -14 -19 -10 0 3 -15 -1 -32 -11 -18 -9 -35
-17 -38 -18 -5 0 -44 -16 -135 -55 -22 -9 -89 -37 -150 -61 -60 -24 -113 -47
-116 -52 -3 -4 -16 -9 -27 -10 -12 -1 -22 -5 -22 -10 0 -4 -4 -6 -9 -2 -5 3
-12 1 -16 -5 -3 -5 -12 -10 -20 -10 -7 0 -43 -13 -78 -30 -36 -16 -68 -30 -72
-30 -3 0 -27 -9 -52 -21 -25 -11 -107 -45 -182 -76 -75 -30 -142 -60 -148 -65
-7 -6 -13 -8 -13 -5 0 3 -42 -13 -92 -35 -123 -53 -141 -61 -153 -63 -9 -2
-54 -21 -130 -55 -11 -5 -45 -19 -75 -31 -30 -12 -73 -29 -95 -39 -22 -10 -80
-34 -130 -54 -49 -20 -99 -41 -110 -46 -11 -5 -72 -30 -135 -55 -63 -26 -135
-56 -160 -67 -25 -12 -51 -21 -57 -21 -7 0 -13 -4 -13 -9 0 -4 -7 -8 -15 -8
-8 0 -34 -9 -58 -19 -92 -42 -140 -61 -153 -61 -8 0 -14 -4 -14 -10 0 -5 -7
-10 -15 -10 -8 0 -34 -9 -58 -20 -23 -10 -67 -29 -97 -40 -306 -118 -456 -222
-583 -405 -56 -81 -123 -222 -128 -267 0 -4 -5 -22 -10 -40 -6 -18 -14 -51
-17 -73 -9 -50 -8 -260 1 -300 3 -16 9 -43 12 -60 10 -48 53 -167 90 -250 42
-92 167 -396 166 -405 0 -3 7 -15 15 -27 8 -13 12 -23 9 -23 -3 0 6 -22 20
-50 14 -27 25 -52 25 -55 -1 -3 8 -26 20 -51 11 -26 20 -48 20 -50 0 -2 9 -23
19 -47 10 -23 36 -82 56 -132 21 -49 43 -103 50 -120 12 -27 26 -63 30 -75 5
-15 27 -68 35 -85 24 -51 91 -212 94 -225 2 -8 15 -40 29 -70 39 -89 109 -259
108 -265 -1 -3 12 -32 29 -65 17 -33 27 -60 24 -60 -4 0 -1 -6 5 -13 6 -8 8
-17 4 -20 -3 -4 -1 -7 5 -7 7 0 12 -6 12 -13 0 -8 6 -27 14 -43 8 -16 36 -81
61 -144 103 -252 117 -286 130 -315 8 -16 30 -70 50 -120 21 -49 43 -105 51
-122 8 -18 21 -50 30 -70 8 -21 19 -47 24 -58 52 -122 93 -222 95 -230 1 -5
12 -32 23 -58 12 -27 22 -51 22 -53 0 -2 9 -26 21 -52 35 -78 105 -246 176
-422 19 -47 41 -101 50 -120 8 -19 20 -46 25 -60 6 -14 16 -38 23 -55 17 -39
85 -204 95 -230 4 -11 17 -41 29 -67 12 -26 21 -50 21 -53 0 -7 38 -93 56
-127 9 -16 13 -28 10 -28 -3 0 8 -28 23 -63 26 -57 42 -94 46 -107 5 -16 20
-50 35 -85 10 -22 51 -119 90 -215 40 -96 81 -194 91 -217 10 -23 19 -45 19
-48 0 -3 9 -25 19 -48 18 -39 37 -85 127 -307 94 -228 176 -348 318 -465 36
-29 183 -121 196 -122 3 0 22 -8 43 -17 35 -14 84 -29 142 -43 105 -25 311
-24 413 1 12 3 30 8 41 10 16 4 281 111 336 136 11 5 61 25 110 46 50 20 101
41 115 47 14 6 27 11 30 12 3 1 16 6 30 12 14 6 63 27 110 46 191 78 437 180
465 192 17 8 82 35 145 60 63 26 121 51 127 57 7 6 13 8 13 5 0 -3 96 35 213
85 116 49 217 90 222 92 6 1 20 7 31 14 12 6 24 8 28 5 3 -3 6 -1 6 5 0 7 11
12 25 12 14 0 25 4 25 9 0 5 12 12 27 16 15 3 45 15 68 25 22 9 114 48 205 85
91 37 185 76 209 86 24 11 49 19 56 19 8 0 15 3 17 8 2 4 41 22 88 41 47 18
99 39 115 47 17 7 59 25 95 39 36 14 84 35 107 46 24 10 45 19 48 19 6 0 172
68 220 90 11 5 76 32 145 61 218 89 308 146 418 263 63 68 142 180 142 202 0
8 3 14 8 14 4 0 15 21 25 48 10 26 22 54 27 64 11 21 37 120 46 178 9 57 12
232 5 245 -3 6 -7 21 -8 35 -1 24 -5 43 -20 105 -4 17 -7 32 -8 35 -5 24 -22
71 -43 120 -21 47 -45 105 -47 110 -1 3 -9 22 -18 44 -9 21 -17 40 -17 43 0 2
-11 29 -25 59 -14 30 -25 56 -25 58 0 3 -10 26 -22 53 -11 26 -22 53 -23 59
-2 6 -10 27 -18 45 -43 93 -97 224 -97 236 0 7 -5 13 -11 13 -6 0 -9 6 -6 14
3 8 3 16 -1 18 -4 2 -21 37 -37 78 -16 41 -32 77 -35 80 -3 3 -6 10 -7 16 -1
7 -14 37 -28 67 -14 31 -25 59 -25 62 0 3 -11 31 -25 61 -14 30 -25 57 -25 59
0 2 -11 29 -25 59 -14 30 -25 57 -25 59 0 3 -8 22 -17 43 -9 22 -17 41 -18 44
-1 3 -9 23 -19 45 -22 51 -39 89 -41 95 -2 6 -14 34 -44 103 -11 26 -18 47
-14 47 3 0 1 6 -5 13 -5 6 -26 50 -45 97 -20 47 -71 171 -115 275 -44 105 -90
215 -102 245 -12 30 -27 61 -33 69 -7 8 -11 15 -9 15 2 1 -2 15 -9 31 -7 17
-13 35 -15 40 -1 6 -10 28 -19 50 -23 53 -38 89 -40 95 -1 3 -6 16 -12 30 -98
228 -133 315 -133 326 0 8 -4 14 -9 14 -5 0 -11 10 -15 23 -3 13 -13 41 -23
63 -9 21 -17 41 -18 44 -2 7 -24 60 -40 95 -7 16 -29 68 -48 115 -20 47 -43
103 -53 125 -9 22 -18 42 -18 45 -2 8 -66 159 -87 206 -10 22 -28 65 -39 95
-12 30 -28 69 -36 87 -31 71 -43 100 -68 162 -15 36 -31 74 -36 85 -5 11 -26
61 -46 110 -20 50 -44 108 -54 130 -10 22 -44 103 -75 180 -32 77 -62 144 -66
150 -5 5 -9 14 -9 21 0 6 -10 33 -22 60 -12 27 -23 51 -23 54 -3 8 -24 59 -75
180 -27 63 -97 230 -155 370 -59 140 -113 262 -121 271 -8 8 -14 19 -14 24 0
33 -217 265 -248 265 -5 0 -17 9 -27 20 -10 11 -20 18 -23 15 -2 -2 -20 7 -38
22 -19 14 -34 23 -34 19 0 -3 -21 4 -47 17 -40 20 -90 37 -113 39 -3 0 -16 5
-30 10 -14 6 -38 12 -55 14 -51 6 -238 11 -270 7z m130 -945 c10 -18 19 -35
18 -38 0 -3 3 -14 7 -25 26 -66 192 -467 215 -520 8 -16 30 -70 50 -120 19
-49 40 -99 45 -110 5 -11 32 -76 60 -145 28 -69 57 -138 65 -155 7 -16 27 -64
43 -105 17 -41 38 -93 48 -115 10 -22 18 -42 19 -45 1 -3 7 -18 13 -33 7 -16
12 -30 12 -31 0 -2 10 -25 22 -52 12 -27 23 -53 24 -59 2 -5 27 -67 57 -137
30 -70 52 -129 49 -132 -3 -3 0 -6 6 -6 7 0 12 -7 12 -15 0 -8 4 -23 9 -33 11
-21 16 -34 191 -455 77 -187 140 -341 140 -343 0 -2 11 -27 24 -56 13 -29 43
-100 66 -158 23 -58 50 -123 59 -145 10 -22 37 -87 61 -145 24 -58 58 -141 78
-185 19 -44 35 -84 36 -90 1 -5 10 -28 20 -50 24 -53 25 -56 96 -230 34 -82
67 -163 75 -180 7 -16 34 -82 59 -145 26 -63 53 -128 60 -145 8 -16 62 -147
121 -290 58 -143 110 -269 115 -280 8 -21 28 -67 53 -125 47 -111 82 -196 83
-200 0 -3 8 -22 17 -44 9 -21 17 -40 17 -41 0 -1 8 -20 17 -41 9 -22 16 -42
15 -46 -1 -5 3 -8 8 -8 5 0 9 -3 8 -8 -1 -4 6 -25 16 -47 10 -22 19 -44 20
-50 1 -5 12 -32 24 -59 12 -27 22 -51 22 -53 0 -3 7 -20 16 -39 9 -19 15 -36
13 -37 -6 -4 -249 -105 -269 -112 -3 -1 -17 -7 -31 -13 -15 -6 -105 -43 -200
-82 -96 -40 -187 -78 -204 -85 -16 -8 -82 -35 -145 -60 -63 -26 -134 -56 -157
-66 -23 -10 -49 -19 -57 -19 -9 0 -16 -4 -16 -10 0 -5 -6 -10 -13 -10 -7 0
-54 -18 -105 -39 -50 -21 -93 -37 -95 -35 -2 3 -10 -2 -17 -11 -7 -8 -18 -15
-25 -15 -7 0 -66 -22 -131 -50 -65 -27 -124 -50 -131 -50 -7 0 -13 -4 -13 -8
0 -5 -6 -9 -12 -9 -10 -1 -249 -98 -353 -143 -11 -5 -76 -32 -145 -60 -69 -28
-138 -57 -155 -65 -16 -7 -37 -15 -45 -17 -8 -2 -17 -5 -20 -8 -3 -3 -32 -16
-65 -29 -107 -42 -349 -142 -380 -156 -79 -36 -125 -53 -125 -47 0 4 -4 2 -8
-3 -4 -6 -34 -21 -67 -33 -33 -13 -69 -28 -80 -33 -32 -14 -286 -120 -338
-140 l-47 -19 -9 22 c-14 36 -61 151 -71 173 -5 11 -30 72 -56 135 -25 63 -53
131 -61 150 -28 66 -32 75 -59 140 -38 94 -54 132 -69 160 -7 14 -13 27 -12
30 1 5 -49 128 -78 195 -8 17 -50 120 -95 230 -44 110 -84 207 -89 215 -5 9
-27 63 -50 120 -23 58 -48 119 -56 135 -7 17 -31 75 -53 130 -22 55 -64 154
-92 220 -28 66 -53 125 -54 130 -1 6 -10 28 -20 50 -9 22 -36 85 -58 140 -58
142 -167 406 -178 430 -5 11 -30 72 -56 135 -25 63 -52 129 -59 145 -8 17 -36
84 -63 150 -66 162 -65 159 -67 165 -1 3 -8 21 -17 40 -8 19 -41 98 -72 175
-32 77 -67 160 -77 183 -11 24 -29 69 -41 100 -11 32 -24 61 -29 66 -5 6 -9
18 -9 28 0 10 -4 18 -8 18 -5 0 -9 6 -9 13 -1 11 -70 184 -93 232 -8 17 -30
69 -35 85 -4 12 -20 50 -46 108 -15 34 -29 66 -30 70 -3 12 -14 41 -69 172
-28 69 -83 202 -121 295 -39 94 -74 179 -79 190 -5 11 -28 65 -50 120 -23 55
-47 114 -54 130 -28 64 -66 164 -66 174 0 6 5 11 11 11 9 0 49 16 179 72 34
14 54 23 130 53 36 14 79 32 95 39 47 21 71 32 205 86 69 28 136 56 150 62 14
6 27 12 30 13 3 1 19 7 35 15 67 29 91 39 105 42 8 2 17 5 20 8 8 8 114 52
128 53 6 0 12 5 12 10 0 6 3 8 6 5 3 -4 31 5 62 19 31 13 66 28 77 33 11 5 46
20 77 33 31 14 59 23 62 19 3 -3 6 0 6 6 0 7 6 12 14 12 12 0 46 14 153 61 23
11 48 19 55 19 8 0 18 4 24 8 5 5 56 28 114 51 58 24 123 51 146 62 23 10 44
19 48 19 3 0 25 9 49 19 99 46 533 224 545 224 6 0 12 4 12 9 0 4 5 8 11 8 6
0 25 6 42 14 68 30 228 96 233 96 3 0 29 11 57 23 29 13 90 39 137 58 47 19
87 37 88 42 2 4 9 7 15 7 7 0 75 27 152 59 77 32 142 59 145 60 3 1 14 -14 25
-31z"/>
<path d="M3173 6338 c0 -13 -3 -50 -7 -83 -4 -33 -9 -84 -12 -113 -3 -29 -7
-62 -9 -74 -3 -12 -7 -53 -11 -92 -3 -39 -7 -84 -10 -101 -7 -60 -16 -132 -20
-176 -7 -84 -13 -134 -19 -184 -11 -88 -15 -127 -20 -174 -3 -25 -7 -66 -10
-91 -3 -25 -8 -67 -11 -95 -2 -27 -6 -63 -8 -80 -2 -16 -7 -61 -10 -100 -4
-38 -11 -99 -15 -135 -5 -36 -9 -72 -10 -80 0 -8 -2 -28 -4 -45 -6 -37 -19
-163 -21 -191 -1 -21 51 -74 72 -74 6 0 12 -4 14 -9 2 -5 41 -37 88 -72 47
-35 87 -66 90 -69 3 -3 28 -21 55 -39 28 -19 52 -37 55 -41 8 -8 121 -93 150
-111 14 -9 35 -26 47 -38 12 -11 25 -21 28 -21 8 0 139 -103 143 -112 2 -5 8
-8 14 -8 6 0 25 -12 43 -27 19 -16 55 -44 82 -63 26 -19 50 -37 53 -40 3 -3
32 -25 65 -49 33 -25 62 -48 63 -53 2 -4 8 -8 13 -8 5 0 51 -33 103 -72 52
-40 104 -80 116 -88 12 -8 62 -46 111 -84 50 -37 92 -67 94 -65 4 4 11 54 20
139 3 30 8 73 12 95 3 22 7 60 9 85 3 43 6 73 19 185 4 28 8 66 10 85 3 19 7
64 10 100 3 36 8 79 11 95 5 30 7 43 19 180 3 39 8 81 11 95 2 14 7 48 9 75 3
28 7 70 10 95 3 25 8 65 10 90 3 24 7 67 10 95 6 48 9 76 19 179 3 26 8 65 10
85 3 20 8 62 11 93 3 32 5 61 6 65 4 24 -15 41 -158 148 -212 157 -214 158
-230 173 -7 7 -13 11 -13 7 0 -3 -12 6 -27 20 -16 14 -36 28 -45 31 -10 3 -18
9 -18 13 0 4 -26 25 -57 47 -32 21 -67 47 -78 57 -11 10 -36 28 -55 40 -19 12
-39 26 -45 33 -5 6 -46 37 -90 69 -44 32 -84 63 -90 67 -5 5 -95 72 -200 150
-104 77 -201 149 -215 159 -95 72 -174 129 -180 129 -3 0 -6 -10 -7 -22z"/>
<path d="M6011 9253 c11 -26 56 -136 100 -243 44 -107 89 -214 99 -237 11 -24
20 -45 20 -47 0 -2 6 -19 14 -37 8 -19 14 -36 13 -39 -1 -3 6 -18 15 -35 18
-35 27 -56 63 -145 15 -36 42 -103 62 -150 19 -47 38 -94 43 -105 4 -11 15
-37 24 -57 38 -91 44 -105 57 -138 7 -19 23 -57 35 -85 12 -27 36 -86 53 -130
40 -99 59 -142 77 -177 9 -16 13 -28 10 -28 -4 0 16 -50 59 -145 7 -16 20 -49
29 -72 8 -23 24 -61 35 -85 11 -24 65 -153 120 -288 55 -135 105 -258 112
-275 7 -16 13 -33 13 -37 1 -4 7 -13 14 -20 6 -6 12 -19 12 -28 0 -10 6 -30
14 -46 19 -40 37 -83 123 -293 30 -74 63 -153 73 -175 10 -23 37 -88 60 -146
23 -58 51 -124 61 -147 10 -23 19 -44 19 -46 0 -3 8 -22 17 -43 9 -22 17 -41
18 -44 2 -8 22 -55 43 -103 38 -84 67 -162 64 -170 -1 -5 3 -7 9 -5 6 2 12 25
13 50 0 25 -2 44 -6 41 -5 -2 -4 6 0 19 8 24 7 182 -2 205 -3 7 -2 13 2 13 4
0 7 25 7 55 0 30 -4 55 -8 55 -5 0 -5 5 -2 11 10 14 13 69 5 74 -6 3 -5 50 0
50 5 0 4 108 -1 111 -4 2 -3 20 1 39 5 20 4 38 -2 41 -5 3 -4 11 3 20 9 11 9
14 0 14 -7 0 -9 5 -6 11 11 17 11 129 0 129 -7 0 -7 3 0 8 9 6 11 33 5 55 -3
9 -3 46 0 50 5 6 4 109 -1 113 -4 2 -3 20 1 39 5 20 4 38 -2 41 -5 3 -4 11 3
20 9 11 9 14 0 14 -7 0 -9 5 -6 11 11 17 11 129 0 129 -7 0 -7 3 0 8 9 6 11
33 5 55 -3 9 -3 46 0 50 5 6 4 109 -1 113 -4 2 -3 20 1 39 4 19 4 37 -1 40 -4
3 -5 16 -1 28 9 28 8 69 -2 85 -4 6 -3 12 2 12 5 0 6 17 2 40 -4 22 -5 40 -1
40 3 0 6 25 6 55 0 30 -4 55 -8 55 -5 0 -5 5 -2 11 10 14 13 69 5 74 -6 3 -5
50 0 50 5 0 4 108 -1 111 -4 2 -3 20 1 39 5 20 4 38 -2 41 -5 3 -4 11 3 20 9
11 9 14 0 14 -7 0 -9 5 -6 11 11 17 11 129 0 129 -7 0 -7 3 0 8 9 6 11 33 5
55 -3 9 -3 46 0 50 5 6 4 109 -1 113 -4 2 -3 20 1 39 5 20 4 38 -2 41 -5 3 -4
11 3 20 9 11 9 14 0 14 -7 0 -9 5 -6 10 6 10 10 88 5 100 -1 3 -4 19 -5 35 -8
85 -17 132 -41 202 -26 78 -82 195 -96 201 -5 2 -8 8 -8 13 0 6 -24 40 -53 77
-49 60 -85 97 -158 157 -31 26 -129 88 -159 101 -40 16 -67 27 -85 35 -25 10
-81 26 -120 35 -16 4 -37 9 -45 12 -8 3 -201 7 -427 9 l-413 5 21 -49z"/>
<path d="M8539 8567 c-4 -84 -2 -4177 2 -4177 7 0 40 72 45 96 1 6 9 27 17 45
9 19 28 63 42 99 14 36 32 79 40 95 7 17 29 71 50 120 20 50 45 109 56 132 10
24 19 46 19 51 0 5 10 28 21 52 12 24 22 50 23 57 1 7 8 19 14 25 7 7 12 18
12 26 0 8 7 28 15 45 34 74 85 202 85 214 0 7 4 13 8 13 5 0 9 6 9 13 0 6 9
32 21 57 11 25 41 97 67 160 26 63 53 129 60 145 33 76 65 153 65 159 0 4 12
33 26 64 49 107 54 120 54 135 0 9 3 17 8 19 6 2 78 173 116 273 6 17 13 32
16 35 3 3 6 12 8 20 2 8 14 39 28 68 13 29 24 55 24 58 0 3 8 24 18 47 45 104
57 132 58 137 0 3 8 22 17 44 9 21 17 40 17 41 0 1 10 24 22 51 12 27 23 51
23 54 1 3 7 19 14 35 47 111 71 213 78 335 4 81 0 132 -21 265 -5 27 -30 99
-52 150 -10 22 -17 43 -16 48 1 4 -3 7 -8 7 -6 0 -10 5 -10 11 0 40 -159 230
-261 312 -39 31 -251 140 -283 144 -11 2 -22 8 -24 13 -2 6 -9 10 -17 10 -7 0
-34 10 -61 22 -27 12 -51 23 -54 23 -3 1 -23 10 -45 20 -62 27 -308 131 -327
138 -11 4 -18 1 -19 -6z"/>
</g>
</svg>
