<svg xmlns="http://www.w3.org/2000/svg" viewBox="0 0 5000000 5000000"><g><path fill="#ccc" fill-rule="nonzero" d="M3486960 1817538c277214,4134 528206,118468 711282,301308l945 945c185912,186266 300955,443164 300955,726401 0,283592 -115279,540608 -301309,726755l-591 591c-186147,186029 -443163,301308 -726873,301308 -56695,0 -112562,-4724 -167013,-13701l168194 252174c38151,57049 49844,124019 37561,185675 -12284,62246 -48545,120003 -105594,158272 -21615,14410 -43939,25041 -66026,31773l-16182 3780c-12992,3071 -25867,5197 -38269,6142l-17480 1063 -1532529 0c-68742,0 -130988,-27875 -175872,-72877 -45001,-45001 -72994,-107247 -72994,-175871 0,-27285 5197,-54687 14292,-81263l118 -472c8858,-25749 21733,-49372 37560,-69924l159100 -238472c-54687,8977 -110673,13701 -167604,13701 -283592,0 -540608,-115279 -726755,-301308l-591 -591c-186029,-186147 -301309,-443163 -301309,-726755 0,-283710 115280,-540726 301309,-726873l591 -591c182722,-182604 433832,-297056 711282,-301190l-4843 -17127c-23977,-87995 -36969,-179179 -36969,-271780 0,-283592 115279,-540608 301308,-726873l591 -473c186147,-186148 443163,-301309 726873,-301309 283355,0 540371,115161 726755,301309l945 945c185912,186384 300955,443164 300955,726401 0,92601 -12875,183785 -36970,271780l-4843 17127zm513914 498677c-135122,-135123 -322333,-218747 -529505,-218747 -30828,0 -60356,1653 -88113,4960 -28347,3308 -57285,8505 -86341,15473 -34017,7796 -70987,3189 -103350,-15945 -66380,-39214 -88349,-124965 -49135,-191345 34135,-57639 60828,-119295 78427,-183431 16891,-61891 25867,-128389 25867,-198549 0,-207172 -83624,-394383 -218747,-529387l-472 -590c-135122,-135123 -322333,-218748 -529387,-218748 -207054,0 -394264,83743 -529741,218984 -135240,135476 -218983,322687 -218983,529741 0,70160 9095,136658 25985,198549 17008,62010 42403,121658 75002,177644 20434,31182 28466,70159 19253,109137 -17835,75121 -93192,121657 -168431,103940 -29056,-6968 -57876,-12165 -86223,-15473 -27757,-3307 -57403,-4960 -88349,-4960 -206936,0 -394146,83624 -529623,218983 -135359,135477 -218983,322687 -218983,529741 0,206936 83624,394146 218983,529623 135477,135359 322687,218983 529623,218983 85278,0 166777,-13937 242133,-39568 78664,-26812 151423,-66380 215558,-115988 46301,-35670 111854,-39686 162998,-5433 63899,42875 81144,129571 38269,193471l-395446 592814 1416186 0 -392492 -588562c-34844,-48781 -35434,-116579 3071,-166423 47127,-60947 134768,-72286 195715,-25158 64135,49371 136775,88703 215321,115397 75121,25631 156383,39450 241425,39450 207054,0 394265,-83624 529741,-218983 135241,-135477 218984,-322687 218984,-529623 0,-207172 -83625,-394382 -218748,-529505l-472 -472z"/></g></svg>