<svg xmlns="http://www.w3.org/2000/svg" viewBox="242.457 52.5 487.387 443.333"><path d="M461.1 52.5c18.2.233 35.467 11.2 42.233 29.166L620 360.5c2.101 6.066 3.268 12.833 3.034 18.666-.467 17.5-11.2 34.767-28.7 42l-171.967 71.167c-6.067 2.8-12.367 3.5-18.434 3.5-17.967-.467-35-11.2-42.233-29.167L245.967 187.833c-9.8-23.566 1.634-50.866 25.434-60.667L443.134 56c5.833-2.1 11.9-3.5 17.966-3.5m81.201 0h33.833c25.773 0 46.667 20.894 46.667 46.666v148.167L542.301 52.5M669.7 88.433l31.267 13.301c24.033 9.8 35 36.866 25.434 60.666l-56.7 136.733v-210.7M461.1 98.467L288.667 170.1l115.967 280.233 172.667-71.4L461.1 98.467"/><path fill="#ef3a50" d="M401.497 199.267l75.366 56.233-10.267 93.567L391.23 292.6z"/></svg>